<?xml version="1.0" encoding="UTF-8"?>
<svg version="1.1" xmlns="http://www.w3.org/2000/svg" width="512" height="512">
<path d="M0 0 C3.66087135 3.00069671 6.97345955 6.27349908 10.24755859 9.68798828 C10.93462891 10.39052734 11.62169922 11.09306641 12.32958984 11.81689453 C28.81337631 29.593527 30.6613242 51.63204918 30.24755859 74.68798828 C31.06434082 74.36523926 31.88112305 74.04249023 32.72265625 73.70996094 C35.7748933 72.50475417 38.82768675 71.30097819 41.88085938 70.09814453 C43.19813993 69.57885374 44.51520106 69.05900599 45.83203125 68.53857422 C47.73297593 67.78740607 49.63472019 67.03829401 51.53662109 66.28955078 C52.67824707 65.83918457 53.81987305 65.38881836 54.99609375 64.92480469 C58.24755859 63.68798828 58.24755859 63.68798828 61.57739258 62.71850586 C64.57642053 61.91629904 64.57642053 61.91629904 65.68115234 58.59814453 C66.01244141 57.32841797 66.34373047 56.05869141 66.68505859 54.75048828 C70.2515325 42.52111368 76.68449175 32.73569084 87.84521484 26.15673828 C100.40379423 19.94069323 114.72762373 18.92513642 128.06005859 23.37548828 C140.56015212 28.49667197 147.95039723 36.392028 153.88818359 48.36767578 C155.24755859 51.68798828 155.24755859 51.68798828 155.61962891 54.10717773 C156.14611805 57.03584174 156.72336938 59.11997976 158.24755859 61.68798828 C162.39169892 64.32627695 166.82365144 65.68416298 171.49755859 67.12548828 C173.91970752 67.93586791 176.34159051 68.74704291 178.76318359 69.55908203 C179.89304687 69.92372559 181.02291016 70.28836914 182.18701172 70.6640625 C185.64865225 71.82217676 188.93391295 73.16351521 192.24755859 74.68798828 C192.23184814 74.135625 192.2161377 73.58326172 192.19995117 73.01416016 C191.63914786 50.16556601 194.44416449 31.11731494 209.24755859 12.68798828 C209.88951172 11.85009766 210.53146484 11.01220703 211.19287109 10.14892578 C222.58350925 -3.49385376 241.10815121 -11.92783733 258.64013672 -13.53076172 C278.35532237 -14.76392423 296.95229482 -10.45843178 312.15405273 2.66748047 C324.13926906 13.59197361 332.26635879 26.11152444 336.77490234 41.69189453 C336.98966217 42.43142365 337.204422 43.17095276 337.4256897 43.93289185 C339.4864297 51.22492822 340.90840643 58.58642527 342.12255859 66.06298828 C342.24384125 66.79162079 342.3651239 67.5202533 342.49008179 68.27096558 C348.84954042 106.53052618 353.36559554 145.08123603 357.94062996 183.58627415 C358.31349713 186.7216964 358.68869527 189.85683782 359.06407166 192.99196053 C359.32112959 195.14827013 359.57440763 197.30500043 359.82751465 199.46177673 C360.62517308 206.17131285 361.54204118 212.81993231 362.84811401 219.45172119 C365.83159147 236.15454503 361.31704691 254.65404181 352.25537109 268.79736328 C350.32417513 271.4937501 348.32174176 274.10069482 346.24755859 276.68798828 C345.07193359 278.26580078 345.07193359 278.26580078 343.87255859 279.87548828 C330.38488759 294.32656435 311.45168538 302.43404592 291.81542969 303.15649414 C271.81660498 303.40177351 254.21550848 297.19054447 239.24755859 283.68798828 C238.20341797 282.78306641 238.20341797 282.78306641 237.13818359 281.85986328 C226.22252754 271.79038212 218.30206404 256.43361596 216.24755859 241.68798828 C216.21791016 240.86427734 216.18826172 240.04056641 216.15771484 239.19189453 C215.92874237 233.17449797 214.72727849 229.94665965 210.46630859 225.63330078 C193.7885483 211.01089827 179.86957178 209.97081193 158.62255859 211.18798828 C156.24701255 211.31672073 153.87137892 211.44340685 151.49560547 211.56787109 C150.03830889 211.64573707 148.58124479 211.72813875 147.12451172 211.81591797 C145.208496 211.92442418 143.29043173 211.9947794 141.37255859 212.06298828 C140.30263672 212.11197266 139.23271484 212.16095703 138.13037109 212.21142578 C134.16093402 211.49068788 132.85315304 209.70610011 130.24755859 206.68798828 C129.45736328 205.84880859 128.66716797 205.00962891 127.85302734 204.14501953 C122.93126338 198.76208867 118.25184213 193.30018974 113.84130859 187.48876953 C113.31537109 186.89451172 112.78943359 186.30025391 112.24755859 185.68798828 C111.58755859 185.68798828 110.92755859 185.68798828 110.24755859 185.68798828 C108.87543558 187.219941 107.576014 188.81719909 106.31005859 190.43798828 C102.79997172 194.8298636 99.18485547 199.0560327 95.37255859 203.18798828 C94.90857666 203.69168945 94.44459473 204.19539062 93.96655273 204.71435547 C92.73367716 206.04522133 91.4910488 207.36703475 90.24755859 208.68798828 C89.77060547 209.29126953 89.29365234 209.89455078 88.80224609 210.51611328 C86.35927595 212.35754806 84.26183662 212.00907974 81.24755859 211.93798828 C79.99716797 211.91220703 78.74677734 211.88642578 77.45849609 211.85986328 C72.92690059 211.69194668 68.40008804 211.44048512 63.87255859 211.18798828 C60.66458884 211.01337646 57.45638487 210.84609469 54.24755859 210.68798828 C53.51118164 210.65108887 52.77480469 210.61418945 52.01611328 210.57617188 C36.91377161 209.907775 25.26680782 213.68213784 13.81396484 223.84814453 C8.72770007 228.84374505 7.24123229 231.26897387 6.49755859 238.43798828 C4.055297 258.43174486 -6.20837858 275.20119852 -21.54931641 288.03564453 C-38.34609797 300.6332307 -58.30127292 304.90261257 -78.98583984 302.41992188 C-97.34845729 299.35948563 -114.05123595 289.51426185 -125.56494141 274.93798828 C-138.696486 256.3727011 -143.27991255 236.04861137 -139.53369141 213.59033203 C-137.96641654 203.65480439 -136.72685177 193.68754322 -135.51806641 183.70361328 C-135.41852095 182.88331886 -135.31897549 182.06302444 -135.2164135 181.21787262 C-134.80089876 177.79341341 -134.38596017 174.36888526 -133.97196102 170.94424248 C-117.21219986 32.32011491 -117.21219986 32.32011491 -96.75244141 9.68798828 C-96.12595703 8.98029297 -95.49947266 8.27259766 -94.85400391 7.54345703 C-70.88305005 -18.04186718 -27.91956682 -20.90272389 0 0 Z " fill="#161F28" transform="translate(144.75244140625,111.31201171875)"/>
<path d="M0 0 C1.01707031 0.60070312 2.03414062 1.20140625 3.08203125 1.8203125 C7.62179053 4.97891267 10.46344493 7.3087229 11.5546875 12.78222656 C12.19802192 19.13515401 12.19632613 25.46548004 11.96923828 31.84204102 C11.74901585 33.98133457 11.74901585 33.98133457 13 35 C20.67315479 34.69370211 26.89497163 32.364789 33.9375 29.4375 C35.98715486 28.60010226 38.03788309 27.76532536 40.08984375 26.93359375 C40.98566162 26.56290771 41.88147949 26.19222168 42.80444336 25.81030273 C45 25 45 25 47 25 C46.47451106 54.35902434 45.76398704 83.71062382 44.9375 113.0625 C44.91444038 113.88151794 44.89138077 114.70053589 44.86762238 115.54437256 C44.58150732 125.69633726 44.29225699 135.8482102 44 146 C42.92403564 146.05333496 41.84807129 146.10666992 40.73950195 146.16162109 C39.30157724 146.24023469 37.86367127 146.31919181 36.42578125 146.3984375 C35.71973755 146.43251709 35.01369385 146.46659668 34.28625488 146.50170898 C22.61629081 147.16664507 13.43703981 151.26525794 4 158 C3.38092773 158.44102051 2.76185547 158.88204102 2.12402344 159.33642578 C0.41438189 160.55532894 -1.29299116 161.77741259 -3 163 C-3.42410156 161.75605469 -3.84820312 160.51210938 -4.28515625 159.23046875 C-11.77653926 137.76020821 -23.4896517 120.77045745 -44.4375 110.625 C-45.11683594 110.29097168 -45.79617187 109.95694336 -46.49609375 109.61279297 C-60.77941293 103.04260141 -82.20180093 102.11159882 -97.15625 106.83984375 C-110.88698255 112.44152997 -121.55971848 119.36457303 -132 130 C-131.1753039 119.8253839 -129.9583386 109.69701888 -128.75 99.5625 C-128.58576538 98.18315277 -128.58576538 98.18315277 -128.41821289 96.77593994 C-125.48242143 72.20378935 -122.08509251 47.70722291 -118.3125 23.25 C-118.2098584 22.57878113 -118.1072168 21.90756226 -118.00146484 21.21600342 C-117.37506308 17.13642281 -116.69619145 13.06814573 -116 9 C-115.89284668 8.17790039 -115.78569336 7.35580078 -115.67529297 6.50878906 C-115.2090809 3.71670401 -114.61944696 1.57341587 -112.50512695 -0.38378906 C-110.5586484 -1.67407327 -108.59722459 -2.72359193 -106.5 -3.75 C-105.40751953 -4.31883911 -105.40751953 -4.31883911 -104.29296875 -4.89916992 C-102.21033252 -5.96753826 -100.11244779 -6.99212438 -98 -8 C-96.65421875 -8.65162109 -96.65421875 -8.65162109 -95.28125 -9.31640625 C-64.09721758 -22.93272177 -27.52966611 -19.83452775 0 0 Z " fill="#34485C" transform="translate(153,164)"/>
<path d="M0 0 C13.04990737 9.95865271 23.1875167 23.53159192 26 40 C27.52420745 58.08897154 25.16652687 75.74360094 13.44921875 90.30859375 C8.07686539 96.57168502 2.09770803 101.75810379 -5 106 C-5.64195313 106.38542969 -6.28390625 106.77085937 -6.9453125 107.16796875 C-8.92675244 108.2498847 -10.9116604 109.1418287 -13 110 C-13.88558594 110.37253906 -14.77117187 110.74507813 -15.68359375 111.12890625 C-31.16700823 116.78972148 -48.00928272 115.28813135 -62.9140625 108.71484375 C-78.76219662 100.70149142 -89.77598233 87.96582143 -95.96875 71.41015625 C-100.73711963 55.6701213 -99.44802454 36.68351191 -91.94433594 22.1328125 C-83.15601982 5.99863945 -69.06758427 -4.20366765 -51.8125 -9.9375 C-33.66601831 -14.21985556 -15.45603075 -10.06531732 0 0 Z " fill="#62B8CC" transform="translate(114,289)"/>
<path d="M0 0 C12.14070074 8.43419397 21.65509787 20.67365475 25.38671875 35.15234375 C28.84696533 56.22839111 26.00938186 74.4356548 13.8515625 92.15625 C6.20101749 101.56942058 -4.14344632 107.85249798 -15.4921875 111.7421875 C-16.3275 112.06058594 -17.1628125 112.37898438 -18.0234375 112.70703125 C-31.00660432 117.05478927 -46.00178529 115.97110916 -58.4921875 110.7421875 C-59.49507813 110.34128906 -60.49796875 109.94039063 -61.53125 109.52734375 C-78.22123416 102.08800972 -88.92224856 87.87807866 -95.36328125 71.22265625 C-99.73996383 57.72914699 -99.16993056 40.68174614 -93.4921875 27.7421875 C-92.89083984 26.35193359 -92.89083984 26.35193359 -92.27734375 24.93359375 C-84.98865814 10.03932316 -71.74205379 -1.15786598 -56.51171875 -7.25 C-37.20554189 -13.6937175 -17.15098869 -10.88877483 0 0 Z " fill="#62B8CC" transform="translate(469.4921875,288.2578125)"/>
<path d="M0 0 C0.25782705 14.26485658 0.45062135 28.52934809 0.56993389 42.79606247 C0.62721479 49.42167 0.70483958 56.04570665 0.82983398 62.67041016 C0.9498215 69.07018593 1.01522309 75.46845611 1.04364967 81.86927032 C1.06389256 84.30458518 1.10342467 86.73982243 1.16303062 89.17449188 C1.6585949 110.26531336 1.6585949 110.26531336 -3.76961803 116.72102737 C-6.03348126 118.99380974 -8.51204691 120.97859222 -11 123 C-12.74959596 124.9345 -14.32823056 126.94216047 -15.9375 129 C-17.27503464 130.68004352 -18.62790974 132.34805767 -20 134 C-20.53238281 134.76828125 -21.06476563 135.5365625 -21.61328125 136.328125 C-25.54254485 139.08053878 -29.62535863 138.15805659 -34.25 137.75 C-35.65378906 137.65138672 -35.65378906 137.65138672 -37.0859375 137.55078125 C-39.39271099 137.38601171 -41.69622128 137.20181863 -44 137 C-44.10480991 125.67569254 -44.0870289 114.37663735 -43.5625 103.0625 C-42.98517241 90.48316173 -42.7430764 77.90194284 -42.5 65.3125 C-42.14871374 47.20129438 -41.68990966 29.10180961 -41 11 C-34.1712702 8.11741448 -27.32750635 5.79155143 -20.1875 3.8125 C-18.81561523 3.42288086 -18.81561523 3.42288086 -17.41601562 3.02539062 C-11.53078523 1.36896578 -6.15006986 -0.06901909 0 0 Z " fill="#34475B" transform="translate(251,174)"/>
<path d="M0 0 C1.42165814 0.14672627 2.84298178 0.29669541 4.26416016 0.44799805 C5.05569489 0.53115768 5.84722961 0.61431732 6.66275024 0.69999695 C16.36325829 1.9451279 25.92168679 5.50068053 35 9 C35.13476377 24.58068825 34.77330148 40.11296101 34.20236206 55.68270874 C33.37296814 78.31957062 32.70532129 100.952261 32.34204102 123.6015625 C32.31758408 124.96369621 32.31758408 124.96369621 32.29263306 126.35334778 C32.26244339 128.03726806 32.2362227 129.72126597 32.21469116 131.40531921 C32.11275428 136.88724572 32.11275428 136.88724572 31 138 C27.8046875 138.42578125 27.8046875 138.42578125 24 138 C21.67347396 136.08957588 20.01160955 134.46287509 18.125 132.1875 C17.61396729 131.60307129 17.10293457 131.01864258 16.57641602 130.41650391 C15.02641649 128.63021954 13.50896103 126.82102234 12 125 C11.54705566 124.45649902 11.09411133 123.91299805 10.62744141 123.35302734 C8.6744591 121.00105656 6.74485189 118.6332033 4.83984375 116.2421875 C3.14724793 114.04382819 3.14724793 114.04382819 1.40755749 112.64578533 C-0.44765911 110.47657499 -0.37035646 109.25515651 -0.36076355 106.42524719 C-0.36488754 105.4871521 -0.36901154 104.54905701 -0.3732605 103.58253479 C-0.36247467 102.55538864 -0.35168884 101.52824249 -0.34057617 100.4699707 C-0.34101425 99.38688629 -0.34145233 98.30380188 -0.34190369 97.18789673 C-0.33981013 93.60034287 -0.31645174 90.01325368 -0.29296875 86.42578125 C-0.28737483 83.94142411 -0.28310377 81.45706366 -0.28010559 78.97270203 C-0.26981327 73.09721205 -0.24615816 67.22189421 -0.21605712 61.34647483 C-0.17924214 54.00119249 -0.16312394 46.6559004 -0.14648438 39.31054688 C-0.11429146 26.2069462 -0.06365039 13.10348368 0 0 Z " fill="#34475B" transform="translate(261,174)"/>
<path d="M0 0 C9.40084889 7.49486317 16.33574958 16.7483486 21.22998047 27.71142578 C21.22998047 28.37142578 21.22998047 29.03142578 21.22998047 29.71142578 C17.76443121 28.59332722 14.34532773 27.39050253 10.94482422 26.09033203 C-15.83000316 15.87788743 -44.1004598 12.02055616 -71.36376953 23.12158203 C-80.22746859 27.25865258 -88.69123116 32.20486369 -96.77001953 37.71142578 C-94.45362571 23.81306283 -87.52027637 14.36101625 -77.77001953 4.71142578 C-77.18478516 4.10427734 -76.59955078 3.49712891 -75.99658203 2.87158203 C-55.78321808 -16.4696317 -21.79799879 -15.86894312 0 0 Z " fill="#3D5A6B" transform="translate(446.77001953125,120.28857421875)"/>
<path d="M0 0 C12.19494354 9.12523973 21.64218925 21.29328745 25.83984375 36.125 C25.50984375 37.115 25.17984375 38.105 24.83984375 39.125 C24.30359375 38.7125 23.76734375 38.3 23.21484375 37.875 C6.29457572 25.40743408 -13.3377 17.66973753 -34.47265625 17.875 C-35.48521484 17.88176758 -36.49777344 17.88853516 -37.54101562 17.89550781 C-44.90333803 17.9970408 -51.96153058 18.4952982 -59.16015625 20.125 C-60.33191406 20.38152344 -61.50367188 20.63804687 -62.7109375 20.90234375 C-71.28468931 22.97678214 -79.00956209 26.03776353 -86.9921875 29.734375 C-90.16015625 31.125 -90.16015625 31.125 -92.16015625 31.125 C-87.48866811 15.99295469 -77.32394527 4.23039102 -63.48291016 -3.29199219 C-43.01844563 -13.76527623 -19.43068034 -12.36740148 0 0 Z " fill="#3D5A6B" transform="translate(136.16015625,118.875)"/>
<path d="M0 0 C5.57660005 4.50874047 9.17775834 9.52475176 11.57421875 16.3046875 C11.57421875 17.2946875 11.57421875 18.2846875 11.57421875 19.3046875 C6.89753704 18.85500657 2.62716233 18.07232969 -1.89453125 16.7890625 C-8.54071669 15.10723483 -14.84324278 14.80838769 -21.67578125 14.8671875 C-23.43825195 14.87202148 -23.43825195 14.87202148 -25.23632812 14.87695312 C-33.44164249 15.00791301 -40.75429046 16.02115187 -48.58203125 18.4296875 C-51.42578125 19.3046875 -51.42578125 19.3046875 -54.42578125 19.3046875 C-54.07630322 12.48986597 -50.3042853 7.28645627 -45.68359375 2.5 C-33.43484254 -8.44221775 -13.42293953 -9.38092715 0 0 Z " fill="#3C596A" transform="translate(277.42578125,149.6953125)"/>
</svg>
